<svg xmlns="http://www.w3.org/2000/svg" width="53" height="37" viewBox="0 0 53 37" fill="none">
    <path d="M0 4C0 1.79086 1.79086 0 4 0H49C51.2091 0 53 1.79086 53 4V33C53 35.2091 51.2091 37 49 37H4C1.79086 37 0 35.2091 0 33V4Z" fill="#03A864"/>
    <path d="M25.223 4V7.88058H17.5091V33H12.7556V7.88058H5V4H25.223Z" fill="white"/>
    <path d="M42.4126 18.1036C43.9693 18.3818 45.2897 19.2024 46.3738 20.5655C47.4579 21.9285 48 23.4724 48 25.1971C48 26.6715 47.6108 28.0067 46.8325 29.2029C46.0819 30.3712 44.9839 31.3031 43.5384 31.9986C42.0929 32.6662 40.4111 33 38.4931 33H26.9013V4H37.951C39.9247 4 41.6204 4.33381 43.0381 5.00144C44.4558 5.66907 45.526 6.57314 46.2487 7.71367C46.9715 8.82638 47.3328 10.0782 47.3328 11.4691C47.3328 13.1381 46.8881 14.529 45.9985 15.6417C45.109 16.7544 43.9137 17.5751 42.4126 18.1036ZM31.6548 16.1842H37.5341C39.0907 16.1842 40.3 15.8365 41.1617 15.141C42.0512 14.4177 42.496 13.3885 42.496 12.0532C42.496 10.7458 42.0512 9.73046 41.1617 9.00719C40.3 8.25612 39.0907 7.88058 37.5341 7.88058H31.6548V16.1842ZM38.0761 29.1194C39.6884 29.1194 40.9532 28.73 41.8705 27.9511C42.7879 27.1722 43.2465 26.0873 43.2465 24.6964C43.2465 23.2777 42.7601 22.1511 41.7871 21.3165C40.8142 20.482 39.5216 20.0647 37.9093 20.0647H31.6548V29.1194H38.0761Z" fill="white"/>
</svg>